# xmcd
#
# Track frame offsets: 
#        151
#        22773
#        37257
#        52829
#        67876
#        83905
#        98636
#        117754
#        133846
#        153692
#        168834
#        184794
#        200640
#        216491
#        228686
#        243152
#        258845
#
# Disc length: 3715 seconds
#
# Revision: 0
# Processed by: cddbd v1.5.2PL0 Copyright (c) Steve Scherf et al.
# Submitted via: ExactAudioCopy v0.95a4
#
DISCID=e60e8111
DTITLE=Paul and Faan - Jou Soort Musiek
DYEAR=1900
DGENRE=Country
TTITLE0=I Fall To Pieces
TTITLE1=Karina
TTITLE2=Roelandstraat
TTITLE3=Was ek maar 'n Digter
TTITLE4=Sprokie vir 'n Stadskind
TTITLE5=On the Road Again
TTITLE6=Klein Karoo
TTITLE7=Jambolaya
TTITLE8=Frauline
TTITLE9=Jantjie
TTITLE10=Have You Ever Seen the Rain
TTITLE11=Gentle on My Mind
TTITLE12=Groen Koring
TTITLE13=The Most Beautiful Girl in the World
TTITLE14=Home on the Range
TTITLE15=Hantam Berge
TTITLE16=Ver in die ou Kalahari
EXTD=
EXTT0=
EXTT1=
EXTT2=
EXTT3=
EXTT4=
EXTT5=
EXTT6=
EXTT7=
EXTT8=
EXTT9=
EXTT10=
EXTT11=
EXTT12=
EXTT13=
EXTT14=
EXTT15=
EXTT16=
PLAYORDER=
